<svg width="146" height="89" viewBox="0 0 146 89" fill="none" xmlns="http://www.w3.org/2000/svg">
<g clip-path="url(#clip0_3_50)">
<path d="M66.9089 63.8883C66.6746 63.2448 67.0054 62.5465 67.6393 62.3C68.287 62.0672 68.9899 62.3958 69.2379 63.0394L74.4473 77.1151H76.8039V79.5797H69.362V77.1151H71.7875L66.9089 63.8883ZM63.7667 20.0045V18.3477C63.7667 17.6631 63.2155 17.1154 62.5264 17.1154H43.136C42.4469 17.1154 41.8957 17.6631 41.8957 18.3477V21.7434C41.8957 22.1268 42.0748 22.4828 42.378 22.7292C42.5434 22.8525 46.1403 25.4951 52.5487 25.8922C52.6176 25.8922 52.6865 25.9058 52.7692 25.9058C53.2929 25.9058 54.6297 25.8374 55.9389 25.1117L63.1466 21.0862C63.5324 20.8534 63.7667 20.4426 63.7667 20.0045ZM90.7231 61.5332C90.7231 76.6769 103.113 89 118.369 89C133.611 89 146 76.6769 146 61.5332C146 46.3895 133.597 34.0665 118.369 34.0665C114.551 34.0665 110.913 34.8332 107.605 36.2298C108.06 37.4485 108.501 38.6123 108.901 39.7077C111.795 38.4617 115.006 37.7634 118.369 37.7634C131.557 37.7634 142.293 48.4297 142.293 61.5332C142.293 74.6368 131.557 85.3031 118.369 85.3031C105.18 85.3031 94.4441 74.6505 94.4441 61.5332C94.4441 53.5506 98.4269 46.4854 104.518 42.1586L103.181 38.5849C95.6844 43.5142 90.7231 51.9486 90.7231 61.5332ZM0.99252 56.5903C1.66781 56.7272 2.31553 56.3028 2.46713 55.6318C5.12694 42.7063 16.2899 33.1628 29.396 32.2865H33.3512C39.5942 32.6972 45.3135 35.0523 49.8889 38.7355C49.3927 39.1326 48.8966 39.5297 48.4143 39.9268C43.7148 36.2572 37.7888 34.0528 31.3667 34.0528C16.1245 34.0528 3.72123 46.3758 3.72123 61.5195C3.72123 76.6769 16.1245 89 31.3667 89C42.7088 89 52.4798 82.1675 56.7382 72.4323C55.4566 72.3638 54.106 72.2954 52.7278 72.2132C48.7864 79.9768 40.6967 85.3031 31.3667 85.3031C18.1779 85.3031 7.44221 74.6505 7.44221 61.5332C7.44221 48.4297 18.1779 37.7634 31.3667 37.7634C36.6863 37.7634 41.5925 39.4886 45.5615 42.4188C41.179 46.4443 37.6234 50.6205 35.0601 53.9888C34.7431 54.4132 34.4262 54.824 34.1368 55.2211H31.1186C27.3701 55.2211 24.3106 58.2471 24.3106 61.9851C24.3106 65.2438 26.6121 67.9686 29.8094 68.5848C33.3788 69.5295 41.4133 70.3511 53.7063 71.0357L57.5789 71.2411L68.4662 71.6929L65.7375 64.3128C65.6272 64.0389 65.5859 63.7514 65.5859 63.4638C65.5859 63.1078 65.6548 62.7655 65.8202 62.4369C66.0958 61.8345 66.5919 61.3826 67.2259 61.1635C67.846 60.9308 68.5213 60.9582 69.1139 61.232C69.7203 61.5195 70.1751 61.9988 70.4094 62.6149L73.2759 70.3785C75.6187 68.8723 77.0796 66.2708 77.0796 63.4775L76.9417 61.9577C76.7488 60.9445 76.3629 59.986 75.8117 59.096C74.2819 56.6862 71.6497 55.2348 68.7969 55.2348H37.2789C37.5821 54.8377 37.9129 54.4269 38.2436 54.0025C40.6691 50.9628 43.7975 47.4302 47.5185 44.0345C50.4677 46.7318 52.7416 50.1549 54.0509 54.0025H57.951C56.5728 49.1965 53.8993 44.9382 50.3437 41.5835C50.826 41.2002 51.3084 40.8031 51.8045 40.4197C55.6357 44.0755 58.4747 48.7446 59.8942 54.0025H62.4575C61.0242 48.1832 57.9923 42.9938 53.8304 38.9272C54.8088 38.2289 55.8424 37.5443 56.876 36.9008L63.243 54.0162H66.2887C71.8977 52.4689 89.4415 46.3211 100.591 27.946L101.197 29.5617C93.0384 43.2403 83.4603 52.6469 76.735 58.1923C77.2174 58.9043 77.6032 59.6848 77.8789 60.5063C80.897 58.0554 84.5077 54.8103 88.3527 50.73C87.1124 54.112 86.4233 57.7542 86.4233 61.5606C86.4233 64.2854 86.7679 66.9965 87.4569 69.6254C87.6361 70.2826 88.3114 70.6797 88.9729 70.5154C89.6344 70.3374 90.034 69.6665 89.8549 69.0092C89.2209 66.5857 88.8902 64.0937 88.8902 61.5743C88.8902 50.7437 94.83 41.2823 103.636 36.2025L108.101 48.2106C110.954 56.0015 118.81 62.2589 119.14 62.5328C119.678 62.9572 120.45 62.8751 120.877 62.3411C121.07 62.1083 121.152 61.8482 121.152 61.5743C121.152 61.2183 120.987 60.8486 120.684 60.6158C120.601 60.5611 113.049 54.5091 110.43 47.3754C110.43 47.3754 108.322 41.7342 105.841 35.0523C109.645 33.2723 113.876 32.2591 118.355 32.2591H118.41C120.725 32.2591 123.04 32.5329 125.273 33.0669C125.935 33.2312 126.61 32.8205 126.761 32.1495C126.927 31.4923 126.513 30.8214 125.838 30.6571C125.163 30.4928 124.488 30.3695 123.798 30.2463L123.854 29.7808H107.095L107.343 31.7388C106.544 32.04 105.745 32.3686 104.959 32.7109C104.601 31.7388 104.229 30.7529 103.857 29.7671H103.815V29.6165C102.754 26.7685 101.707 23.9615 100.784 21.4832H125.094L125.438 19.1966H99.9429C98.7714 16.0337 97.9308 13.8018 97.8068 13.4458C98.5647 12.6928 100.343 10.9265 100.343 10.9265C100.494 10.7758 100.591 10.5978 100.646 10.4062C101.087 8.91369 101.872 5.98354 101.872 3.64215C101.872 2.51938 101.693 1.51985 101.211 0.876308C100.784 0.314923 100.15 0 99.4467 0C99.3778 0 99.3227 0.0136923 99.2538 0.0273846C99.1987 0.0136923 99.1298 0 99.0609 0C98.9782 0 98.9093 0.0136923 98.8266 0.0136923C98.7852 0.0136923 98.7301 0 98.675 0H88.0633C87.3742 0 86.823 0.547692 86.823 1.23231C86.823 1.91692 87.3742 2.46462 88.0633 2.46462H92.7214C90.4062 4.094 88.711 5.95615 88.6008 6.09308C88.146 6.59969 88.2011 7.38015 88.711 7.832C89.221 8.28385 90.0065 8.24277 90.4613 7.72246C91.7705 6.25738 95.8636 2.45092 99.0884 2.45092C99.1573 2.45092 99.2125 2.43723 99.2814 2.43723C99.3778 2.62892 99.4192 2.97123 99.4192 3.40938C99.4192 4.77862 99.0195 7.14738 98.358 9.40662C97.9584 9.80369 95.5053 12.2409 95.5053 12.2409C95.271 12.4737 95.1469 12.7886 95.1469 13.1172C95.1469 13.2678 95.1745 13.4048 95.2296 13.5417L99.4605 24.8926C88.5457 44.3631 69.61 50.5246 65.0071 51.7569L55.6082 26.5083C55.6082 26.5083 54.2162 27.1518 53.1964 27.1518L55.9389 34.5183C54.547 35.3672 53.1964 36.2709 51.901 37.2157C49.379 35.1071 46.5124 33.3818 43.4116 32.1222C43.7699 31.9031 44.018 31.5197 44.018 31.0678C44.018 30.3832 43.4668 29.8355 42.7777 29.8355H33.4063C32.7173 29.7945 32.042 29.7671 31.3529 29.7671C30.6638 29.7671 29.9886 29.7945 29.2995 29.8355H14.1262C13.4371 29.8355 12.8859 30.3832 12.8859 31.0678C12.8859 31.7525 13.4371 32.3002 14.1262 32.3002H18.8945C9.45429 36.2983 2.17772 44.7054 0.027823 55.1389C-0.109991 55.8098 0.317232 56.4534 0.99252 56.5903ZM125.618 17.9643L125.962 15.6777H104.959L105.304 17.9643H125.618ZM104.78 14.4317H126.155L126.5 12.1451H104.436L104.78 14.4317ZM126.927 9.28338C126.927 9.26969 126.927 9.256 126.927 9.24231C126.927 9.21492 126.913 9.18754 126.913 9.16015C126.913 9.11908 126.913 9.078 126.885 9.05062C126.872 9.00954 126.858 8.96846 126.83 8.94108C126.817 8.91369 126.789 8.87261 126.761 8.84523C126.734 8.81785 126.706 8.79046 126.679 8.76308C126.651 8.73569 126.624 8.722 126.582 8.70831C126.541 8.69462 126.5 8.68092 126.458 8.66723C126.431 8.65354 126.417 8.63985 126.389 8.63985C126.376 8.63985 126.362 8.63985 126.348 8.63985C126.334 8.63985 126.32 8.63985 126.307 8.63985H104.629C104.615 8.63985 104.601 8.63985 104.587 8.63985C104.573 8.63985 104.56 8.63985 104.546 8.63985C104.518 8.63985 104.505 8.66723 104.477 8.66723C104.436 8.68092 104.394 8.69462 104.367 8.70831C104.325 8.722 104.298 8.74938 104.27 8.76308C104.243 8.79046 104.215 8.81785 104.188 8.84523C104.16 8.87261 104.132 8.91369 104.119 8.94108C104.105 8.96846 104.091 9.00954 104.064 9.05062C104.05 9.09169 104.05 9.11908 104.05 9.16015C104.036 9.18754 104.036 9.21492 104.036 9.24231C104.036 9.256 104.036 9.26969 104.036 9.28338C104.036 9.29708 104.036 9.31077 104.036 9.33815L104.27 10.9128H126.72L126.954 9.33815C126.927 9.32446 126.927 9.31077 126.927 9.28338ZM106.379 25.0022H124.57L124.915 22.7155H123.661H107.288H106.034L106.379 25.0022ZM123.123 26.2345H107.812H106.558L106.902 28.5211H124.033L124.377 26.2345H123.123Z" fill="#3E5266"/>
</g>
<defs>
<clipPath id="clip0_3_50">
<rect width="146" height="89" fill="white"/>
</clipPath>
</defs>
</svg>
