<svg width="159" height="89" viewBox="0 0 159 89" fill="none" xmlns="http://www.w3.org/2000/svg">
<g clip-path="url(#clip0_3_52)">
<path d="M118.235 8.33095V3.73299C118.235 1.66922 116.661 0 114.707 0H113.465V12.0639H114.707C116.661 12.0639 118.235 10.3795 118.235 8.33095ZM5.46656 41.3209H3.22542V36.207H5.45142V33.7183H0.757135V43.7944H5.46656V41.3209ZM30.2857 83.9468C27.5751 83.9468 25.016 83.3398 22.7143 82.2776L14.0828 82.4142C18.2774 86.481 23.9863 89 30.2706 89C36.8123 89 42.718 86.2837 46.9428 81.9134L38.3568 82.05C35.934 83.2639 33.178 83.9468 30.2857 83.9468ZM77.3043 26.2523C77.4557 25.7061 77.5617 25.1294 77.5617 24.5072C77.5617 21.2143 73.988 20.926 73.988 20.926C73.988 20.926 52.2731 20.926 48.6237 20.926C44.9743 20.926 44.9743 23.2629 44.9743 24.8714C44.9743 25.2508 45.1257 25.7364 45.368 26.2523H77.3043ZM8.02571 80.0165L71.3077 79.0605L72.2011 73.5369L8.02571 72.5657V80.0165ZM65.2506 64.8569H49.9866H50.0017C49.9866 64.8569 49.9714 64.8569 49.9563 64.8569C49.8957 64.8569 49.8503 64.8569 49.7746 64.8569C49.7291 64.8569 49.6988 64.8569 49.6534 64.8569C49.2446 64.8418 48.8357 64.7962 48.4723 64.7052C45.4588 64.0223 44.2171 61.215 44.1263 59.2726V59.2119V58.8174H33.7988L35.404 48.1495C35.722 48.2406 36.0551 48.3316 36.3731 48.453C39.4471 49.5456 42.1426 51.4273 44.202 53.8856C44.1566 53.5821 44.1263 53.142 44.1263 52.5654C44.1263 51.2755 44.3534 49.5001 45.3377 47.8916C45.5043 47.6184 45.686 47.3604 45.898 47.1025C46.8974 45.9037 48.7903 44.4621 52.2277 44.4621C58.0728 44.4621 72.2314 46.4044 75.2297 54.705L76.0474 49.6367L73.1703 47.5425C73.3066 47.6336 73.4428 47.7246 73.5943 47.8157L72.5343 47.0418C72.2011 46.7383 71.9286 46.4044 71.7166 46.0251C71.1714 45.0084 71.1714 43.7488 71.7317 42.2617V42.2465L72.0497 41.503L77.2891 28.7865H42.5817V22.747C42.5817 21.7151 41.7488 20.8805 40.7191 20.8805C39.6894 20.8805 38.8566 21.7151 38.8566 22.747C38.8566 22.747 38.8566 27.5574 38.8566 28.7865C35.6008 28.7865 11.2814 28.7865 11.2814 28.7865C10.2517 28.7865 9.41885 29.6211 9.41885 30.653C9.41885 31.6849 10.2517 32.5195 11.2814 32.5195H24.5617C20.5488 33.4755 17.1568 35.251 14.2797 37.4817L7.90456 33.779V44.113C1.96856 52.1708 0.0302775 61.215 -0.0151511 61.3819C-0.0908653 61.7613 0.0151346 62.1558 0.272563 62.4442C0.529992 62.7325 0.908563 62.8842 1.30228 62.8691L7.19285 62.4138C7.04142 63.4912 6.95056 64.599 6.95056 65.7067C6.95056 67.209 7.10199 68.6962 7.37456 70.1226L12.5686 70.1985C12.2051 68.7569 11.9931 67.2546 11.9931 65.7067C11.9931 64.0223 12.2354 62.4138 12.6594 60.8508C14.7946 53.1117 21.8511 47.406 30.2403 47.406C30.316 47.406 30.3917 47.406 30.4674 47.4211L28.7714 58.9843C25.7277 59.6672 23.4411 62.3986 23.4411 65.6612C23.4411 67.467 24.1528 69.1211 25.3037 70.335L47.7908 70.6689C47.7757 70.7296 47.7606 70.7903 47.7454 70.8358C47.7606 70.7751 47.7757 70.7144 47.806 70.6689L72.5948 71.0482L73.9577 62.5504C72.2617 64.0982 69.3846 64.8569 65.2506 64.8569ZM111.588 65.6612C111.588 58.8326 114.435 52.6564 118.993 48.2558L129.532 68.5899C130.622 70.8965 132.969 72.505 135.695 72.505C139.466 72.505 142.525 69.4397 142.525 65.6612C142.525 61.8827 139.466 58.8174 135.695 58.8174C134.771 58.8174 133.908 58.9995 133.106 59.3333L125.125 43.9461C128.321 42.3831 131.909 41.4878 135.695 41.4878C139.481 41.4878 143.115 42.3528 146.477 44.0523C147.885 44.7656 149.596 44.1889 150.308 42.7777C151.02 41.3664 150.444 39.6517 149.036 38.9384C144.872 36.8443 140.374 35.7669 135.68 35.7669C130.94 35.7669 126.458 36.8899 122.491 38.8626L121.855 37.6334C123.429 36.8595 125.519 35.8428 125.701 35.7517C126.049 35.691 140.859 33.1417 140.859 33.1417C141.465 33.0355 141.889 32.5043 141.889 31.9125C141.889 31.8367 141.889 31.776 141.873 31.7001C141.752 31.0172 141.116 30.5772 140.435 30.6834L126.019 33.172L121.567 23.961C121.264 23.3388 120.522 23.0808 119.916 23.3843C119.295 23.6878 119.038 24.4314 119.341 25.0384L123.657 33.9763L120.704 35.4179L120.098 34.2494C121.022 33.7183 121.9 33.2176 121.9 33.2176L112.209 13.1717V0H103.986C103.956 0 103.925 0 103.895 0C103.759 0 103.638 0.0151748 103.517 0.0151748C103.395 0.0151748 103.259 0.0151748 103.138 0.0303495H103.123C101.76 0.151748 100.7 0.546292 99.8974 1.04706C99.5491 1.25951 99.216 1.51748 98.9283 1.8058C98.8677 1.8665 98.8071 1.9272 98.7466 1.98789C98.7314 2.00307 98.7011 2.03342 98.686 2.04859C98.6557 2.09412 98.6254 2.12447 98.58 2.16999C97.8228 3.05013 97.5806 3.86957 97.5806 3.86957L92.6591 5.35669C91.3417 5.75124 90.5997 7.13214 90.9934 8.45234C91.3871 9.77255 92.7651 10.5161 94.0826 10.1216L97.9137 8.96829L100.321 8.2399L102.048 7.72396C103.365 7.32941 104.107 5.94851 103.713 4.6283C103.441 3.67229 102.653 3.03495 101.76 2.88321C102.32 2.65558 102.987 2.51901 103.759 2.50384C103.85 2.50384 103.925 2.48866 104.016 2.48866C104.016 2.48866 108.075 2.48866 109.755 2.48866V12.7468L107.363 14.0215C106.242 14.6588 105.334 15.3113 104.592 15.9942L100.851 9.36283L98.4437 10.0912L102.85 18.1794C102.744 18.3918 102.669 18.5891 102.593 18.8015C102.517 19.0292 102.457 19.2416 102.426 19.4692C102.396 19.6968 102.366 19.9093 102.366 20.1217C102.366 21.1991 102.79 21.9427 103.047 22.2917C103.577 23.5512 103.804 24.659 103.804 25.6302C103.804 29.2873 100.791 31.0324 100.352 31.26L99.2311 31.867L99.8823 32.9899C99.8823 32.9899 100.579 34.1736 101.139 35.1144C99.5643 36.0249 84.9968 44.4014 78.8337 47.9523L78.7428 48.5137L78.6671 48.9234L78.4097 50.5168L78.3188 51.0934C79.3031 50.532 104.546 36.0097 104.546 36.0097C104.546 36.0097 103.168 33.688 102.608 32.732C103.941 31.7304 105.334 30.0916 105.939 27.8912C106.439 28.8776 106.984 29.9095 107.514 30.9565C107.666 31.2448 107.817 31.5332 107.953 31.8215C108.771 33.6121 111.966 42.0341 105.576 52.5047C105.213 53.0965 105.394 53.8552 105.985 54.2194C106.575 54.5836 107.333 54.3864 107.696 53.8097C110.967 48.4379 111.936 43.5364 111.951 39.6061C111.951 39.6213 111.966 39.6365 111.981 39.6517C111.966 39.1964 111.951 38.7564 111.921 38.3163C111.679 33.5818 110.104 30.562 109.983 30.3344C109.952 30.2737 109.922 30.2281 109.877 30.1826C109.816 30.0612 109.771 29.955 109.71 29.8336C109.71 29.8336 104.758 20.8198 104.834 20.1217C104.849 20.0307 104.849 19.9245 104.864 19.8182C104.879 19.7424 104.91 19.6513 104.94 19.5451C105.182 18.8471 106 17.6483 108.529 16.2066C108.529 16.2066 109.528 15.6755 110.407 15.1899C110.437 15.2355 110.467 15.3113 110.497 15.372C111.482 17.4206 116.009 26.7683 117.902 30.6834C118.251 31.4118 118.523 31.9581 118.644 32.2312C117.705 32.7623 115.903 33.7942 115.873 33.8094C115.873 33.8094 115.691 37.6486 114.117 43.5212C113.92 44.2193 113.708 44.9477 113.481 45.7064C112.39 49.1814 110.815 53.2938 108.529 57.8614C108.181 58.5594 107.817 59.2726 107.423 60.001C106.939 60.866 106.469 61.7006 106.03 62.4745C99.322 74.3108 97.6714 75.9649 97.6714 75.9649C97.6714 75.9952 97.6714 76.0104 97.6714 76.0256C97.6108 75.3579 97.52 74.7964 97.414 74.326C97.2626 73.7038 97.096 73.2334 96.884 72.8692C96.5054 72.2015 96.0663 71.9132 95.6574 71.807L95.506 71.7766C95.506 71.7766 92.6591 71.7766 91.3568 71.7766C91.0691 70.2288 90.0243 64.6749 90.0243 64.6749C89.2823 60.5321 86.2234 59.303 84.7091 59.2423H76.9711L76.5774 61.7309H84.6637C84.8454 61.7461 87.0411 61.9889 87.6014 65.1301L89.3277 74.2653C89.3277 74.2653 93.9463 74.2653 94.8246 74.2653C94.9608 74.584 95.188 75.3275 95.2788 76.8602H74.1849L73.7911 79.3489H96.8083L97.0203 79.273C100.67 77.8769 103.698 74.2805 106.182 69.8191C106.318 70.7903 106.485 71.7463 106.712 72.7023C107.09 74.235 108.62 75.1758 110.149 74.8116C111.679 74.4474 112.617 72.8996 112.254 71.3669C111.815 69.4853 111.588 67.5732 111.588 65.6612ZM135.71 42.3224C132.5 42.3224 129.441 42.9749 126.655 44.1586L128.987 48.6655C131.077 47.8309 133.333 47.3604 135.71 47.3604C145.765 47.3604 153.957 55.57 153.957 65.646C153.957 75.7373 145.765 83.9316 135.71 83.9316C125.64 83.9316 117.463 75.7221 117.463 65.646C117.463 61.5944 118.796 57.8766 121.022 54.8416L118.493 49.9553C114.722 54.098 112.421 59.6065 112.421 65.646C112.421 78.5142 122.869 88.9848 135.71 88.9848C148.551 88.9848 159 78.5142 159 65.646C159 52.793 148.551 42.3224 135.71 42.3224ZM52.2277 46.9356C47.5031 46.9356 46.6703 50.2436 46.6248 52.2922V59.1664C46.6248 59.1664 46.7763 62.3531 49.8654 62.3835C49.8806 62.3835 49.8957 62.3835 49.9108 62.3835C49.9108 62.3835 49.9109 62.3835 49.926 62.3835C49.9714 62.3835 50.0017 62.3835 50.0017 62.3835C50.0017 62.3835 52.47 62.3835 56.074 62.3835H65.2657C73.1248 62.3835 73.352 59.652 73.352 57.998C73.3217 49.5608 59.0723 46.9356 52.2277 46.9356Z" fill="#3E5266"/>
</g>
<defs>
<clipPath id="clip0_3_52">
<rect width="159" height="89" fill="white"/>
</clipPath>
</defs>
</svg>
