<svg width="104" height="91" viewBox="0 0 104 91" fill="none" xmlns="http://www.w3.org/2000/svg">
<g clip-path="url(#clip0_3_48)">
<path d="M1.54955 85.612C3.55675 89.0996 7.45675 90.9478 11.0863 90.812C14.7783 90.7703 18.5743 88.1598 20.2383 84.5365C20.6439 83.461 21.0703 82.4169 21.1119 81.1952C28.4751 78.1984 29.6295 69.9285 30.4823 63.0996C31.1687 58.3068 30.7631 52.6683 31.8239 47.8337C33.9767 36.6506 42.1511 25.4988 52.7071 20.6956C57.3559 18.5132 62.2231 17.1663 67.5999 16.8843L67.6623 20.9149C55.5879 21.4474 43.6383 29.2683 38.5215 40.6394C32.6975 51.8851 34.5591 67.9028 42.4735 77.5406C51.4383 89.0892 66.4559 93.7149 80.1007 89.4233C91.4679 86.1655 101.306 74.7317 103.334 63.204C106.111 48.314 100.225 34.0924 87.6303 26.0418C82.8359 23.1285 77.5839 21.3743 71.7599 20.9879L71.6559 20.9044L71.6975 10.9639C74.9632 10.6819 78.7591 10.7028 80.3607 7.31967C80.9951 5.38795 80.8495 2.88192 79.2271 1.4514C76.0655 -0.647394 71.6143 0.125296 67.7039 0.167063L67.6623 6.80803C65.4471 6.93333 63.2215 6.54698 61.1519 6.80803C60.5279 6.93333 59.9559 7.42409 59.6543 7.98795C59.3527 8.6771 59.5295 9.55421 60.0183 10.1076C60.5487 10.6193 61.2143 10.8594 61.9631 10.8177C63.8663 10.8594 65.8839 10.7341 67.6623 10.9221V12.7598C51.9791 13.261 36.7015 23.5149 30.5343 38.5301C26.9255 45.7871 27.1023 55.0594 26.4367 63.0996C25.6047 68.1116 25.3239 73.7502 20.7375 76.7679C19.7495 73.2803 16.3799 70.1478 12.8647 69.4169C8.36155 68.5189 4.03515 70.294 1.64315 74.147C-0.540854 77.3839 -0.520054 82.3333 1.54955 85.612ZM71.7495 6.80803L71.7911 4.19759C72.0511 4.26024 72.1759 4.19759 72.4567 4.13493C73.7359 4.39598 75.3791 4.03052 76.5543 4.64658C76.6999 4.99116 76.7415 5.52369 76.5127 5.8265C75.1503 6.70361 73.4135 6.72449 71.7495 6.80803ZM74.9735 25.6867L71.6871 42.5815L71.7495 25.0602C72.7895 25.2795 73.7983 25.2482 74.9735 25.4675V25.6867ZM86.2367 30.0932L71.6871 52V47.8859L75.8887 25.6763C79.6223 26.449 83.1479 27.9944 86.2367 30.0932ZM94.5359 38.3213L90.8439 40.89L78.1975 49.5879L72.8623 53.1173C72.6751 52.9711 72.5607 52.7518 72.4567 52.6056L87.0479 30.6048C89.9287 32.5783 92.5703 35.4498 94.5359 38.3213ZM99.2991 49.6924L81.1615 53.2948C78.7279 53.5767 76.1071 54.3285 73.632 54.6209C73.5071 54.4225 73.4655 54.151 73.4864 53.9526L80.6103 49.0763L95.0975 39.1566C97.0735 42.4145 98.5503 45.9647 99.2991 49.6924ZM99.4031 61.5124L86.9439 58.9855L73.7359 56.2602L73.7983 55.6442C77.9167 54.8506 82.0351 54.057 86.1327 53.2217L86.1743 53.2843L99.4863 50.653C100.1 54.0779 100.1 58.0875 99.4863 61.5124H99.4031ZM94.9415 72.8731L81.3799 63.5173C82.2327 62.6819 82.7215 61.5438 82.3367 60.3221C82.1079 59.8731 81.7231 59.4241 81.2239 59.257C79.7471 58.8707 78.5095 59.7478 77.5735 60.8442C76.4607 59.7478 75.2751 58.5052 74.3079 57.4193L87.9631 60.1863L99.2887 62.4522C98.5607 66.2217 96.9799 69.6257 95.0455 72.8835H94.9415V72.8731ZM86.9439 81.3518L77.7919 67.4329L77.6879 67.1197L80.7143 64.2482L92.7887 72.5181L94.4319 73.7606C92.4663 76.5904 89.7831 79.3992 86.9439 81.3518ZM75.8471 86.1863L71.6871 64.6032L70.8759 59.9149C72.1551 61.2827 73.6319 62.4418 74.3911 64.0289C73.3303 64.9269 72.6231 66.1695 72.9663 67.4747C73.1535 67.9863 73.6319 68.3936 74.0999 68.6546C75.1711 68.9887 76.2319 68.5606 76.9599 67.8715C77.7711 68.9887 78.4159 70.1687 79.2271 71.2755L86.1431 81.8948C82.9919 84.0458 79.4767 85.4137 75.8471 86.1863ZM64.2199 86.2699C64.7295 83.5968 65.2495 80.8924 65.7591 78.2193L69.3471 59.9671L69.8567 59.9044L70.7719 64.6345L74.9111 86.3743C73.9335 86.5622 73.2055 86.604 72.2695 86.7398C71.9471 86.8442 71.6975 86.7189 71.4375 86.8442C69.3159 86.8964 66.4663 86.8546 64.2199 86.2699ZM44.6575 73.4892L44.7615 73.3847L56.0247 65.7205L66.1127 58.8916C66.4143 58.7036 66.7783 58.547 67.0279 58.9542L63.7415 63.841L52.1871 81.2369C49.3791 79.1904 46.5815 76.4024 44.6575 73.4892ZM39.7903 62.2225L41.2879 61.9197L52.3847 59.8C56.8463 58.7767 61.3183 58.1293 65.7591 57.1896L66.0607 57.743L44.1063 72.6538C42.0159 69.4586 40.6327 65.9502 39.7903 62.2225ZM39.6447 50.5068C40.7055 50.5486 41.9015 51.0185 43.0143 51.0707L65.4991 55.6546L65.5407 56.2707C62.9615 56.845 60.2263 57.1896 57.7095 57.7534C51.5839 58.8498 45.7807 60.1341 39.5719 61.1992C38.9167 57.6594 39.0935 53.9108 39.6447 50.5068ZM44.1479 38.9373L56.2223 47.3743L55.6711 48.4394C55.4527 49.1703 55.5671 50.0265 56.0351 50.6008C56.3575 50.9663 56.8255 51.1542 57.2103 51.2169C58.2399 51.3422 59.3215 50.9141 59.9871 49.9743C62.0359 51.2169 63.9391 52.543 65.6655 54.6C64.1263 54.3807 62.4623 54.0257 60.9543 53.7229L42.2239 49.9325L39.8527 49.4209C40.6743 45.6618 42.0991 42.1743 44.1479 38.9373ZM52.5927 30.9285L60.4863 43.0096L57.0543 46.5494L56.8463 46.612C52.7903 43.8972 48.8279 40.9317 44.7719 38.2169V38.0707C46.8415 35.0948 49.2959 32.5261 52.3015 30.4691L52.5927 30.9285ZM67.5479 42.5815L67.4439 42.0281L64.3239 25.4675L67.5479 25.0602V42.5815ZM67.5895 47.7189L67.5479 50.5486C66.3519 49.1494 64.3967 47.9068 63.8143 46.1735C64.7503 45.4843 65.1975 44.294 65.1767 43.2602C65.0727 42.592 64.7087 41.8506 64.0015 41.6104C62.9823 41.3076 61.9527 41.6104 61.1831 42.2787L54.7455 32.5157L53.1023 29.9052C56.2431 27.8273 59.7375 26.4386 63.3463 25.6241L63.3879 25.6867L67.5895 47.7189ZM67.8079 59.539C67.9951 59.6225 68.2551 59.6016 68.4319 59.7582C68.3695 59.7791 68.3695 59.8626 68.3695 59.9044L65.6967 73.4787L63.3463 86.0715L63.0863 86.1133C59.5087 85.1944 56.0247 83.8683 52.9983 81.6964L58.0735 73.9904L67.8079 59.539ZM4.67995 77.1333C5.91755 74.6064 8.39275 73.1446 11.2319 73.3847C13.7071 73.6144 16.0367 75.4626 16.7127 77.906L11.3359 77.9687C10.7223 77.9269 10.2543 78.1879 9.79675 78.5221C9.24555 79.0546 9.13115 79.9317 9.28715 80.6209C9.48475 81.1952 9.91115 81.6651 10.4623 81.9679C12.3759 82.2707 14.8095 82.2498 16.7127 82.1558C16.0679 84.3799 13.9359 86.1133 11.7415 86.5205C9.39115 86.9486 7.27995 86.0506 5.74075 84.4217C3.97275 82.5735 3.54635 79.4827 4.67995 77.1333Z" fill="#3E5266"/>
</g>
<defs>
<clipPath id="clip0_3_48">
<rect width="104" height="91" fill="white"/>
</clipPath>
</defs>
</svg>
